<mxfile host="65bd71144e">
    <diagram id="9Apm7s_4LJAaTIVjxxzu" name="第 1 页">
        <mxGraphModel dx="945" dy="540" grid="1" gridSize="10" guides="1" tooltips="1" connect="1" arrows="1" fold="1" page="1" pageScale="1" pageWidth="827" pageHeight="1169" math="0" shadow="0">
            <root>
                <mxCell id="0"/>
                <mxCell id="1" parent="0"/>
                <mxCell id="2" value="&lt;font face=&quot;SimSun&quot;&gt;前序：&lt;/font&gt;ABDHLECFIJMNGK" style="text;html=1;align=center;verticalAlign=middle;resizable=0;points=[];autosize=1;strokeColor=none;fillColor=none;fontFamily=Times New Roman;fontSize=19;" parent="1" vertex="1">
                    <mxGeometry x="80" y="80" width="250" height="40" as="geometry"/>
                </mxCell>
                <mxCell id="3" value="&lt;font face=&quot;SimSun&quot;&gt;中序：&lt;/font&gt;DHLBEAIFNMJCGK" style="text;html=1;align=center;verticalAlign=middle;resizable=0;points=[];autosize=1;strokeColor=none;fillColor=none;fontFamily=Times New Roman;fontSize=19;" parent="1" vertex="1">
                    <mxGeometry x="80" y="110" width="250" height="40" as="geometry"/>
                </mxCell>
                <mxCell id="4" value="Step1：&lt;font face=&quot;SimSun&quot;&gt;取出根结点&lt;/font&gt;A" style="text;html=1;align=center;verticalAlign=middle;resizable=0;points=[];autosize=1;strokeColor=none;fillColor=none;fontSize=19;fontFamily=Times New Roman;" parent="1" vertex="1">
                    <mxGeometry x="80" y="150" width="190" height="40" as="geometry"/>
                </mxCell>
                <mxCell id="5" value="&lt;font face=&quot;SimSun&quot;&gt;中序：&lt;/font&gt;DHLBEAIFNMJCGK" style="text;html=1;align=center;verticalAlign=middle;resizable=0;points=[];autosize=1;strokeColor=none;fillColor=none;fontFamily=Times New Roman;fontSize=19;" parent="1" vertex="1">
                    <mxGeometry x="120" y="180" width="250" height="40" as="geometry"/>
                </mxCell>
                <mxCell id="6" value="左子树" style="line;strokeWidth=1;html=1;fontFamily=SimSun;fontSize=19;labelBackgroundColor=none;fontColor=#FF0000;strokeColor=#FF0000;" parent="1" vertex="1">
                    <mxGeometry x="190" y="200" width="60" height="20" as="geometry"/>
                </mxCell>
                <mxCell id="7" value="右子树" style="line;strokeWidth=1;html=1;fontFamily=SimSun;fontSize=19;labelBackgroundColor=none;fontColor=#FF0000;strokeColor=#FF0000;" parent="1" vertex="1">
                    <mxGeometry x="265" y="200" width="95" height="20" as="geometry"/>
                </mxCell>
                <mxCell id="8" value="" style="rounded=0;whiteSpace=wrap;html=1;labelBackgroundColor=none;strokeColor=#00FFFF;strokeWidth=1;fontFamily=SimSun;fontSize=19;fontColor=#FF0000;fillColor=none;" parent="1" vertex="1">
                    <mxGeometry x="251" y="192" width="14" height="16" as="geometry"/>
                </mxCell>
                <mxCell id="9" value="Step2：&lt;font face=&quot;SimSun&quot;&gt;取前序遍历中下一个结点&lt;/font&gt;B&lt;font face=&quot;SimSun&quot;&gt;，去分割&lt;/font&gt;A&lt;font face=&quot;SimSun&quot;&gt;的左子树&lt;/font&gt;" style="text;html=1;align=center;verticalAlign=middle;resizable=0;points=[];autosize=1;strokeColor=none;fillColor=none;fontSize=19;fontFamily=Times New Roman;" parent="1" vertex="1">
                    <mxGeometry x="80" y="240" width="470" height="40" as="geometry"/>
                </mxCell>
                <mxCell id="10" value="&lt;font face=&quot;SimSun&quot;&gt;中序：&lt;/font&gt;DHLBE" style="text;html=1;align=center;verticalAlign=middle;resizable=0;points=[];autosize=1;strokeColor=none;fillColor=none;fontFamily=Times New Roman;fontSize=19;" parent="1" vertex="1">
                    <mxGeometry x="120" y="270" width="140" height="40" as="geometry"/>
                </mxCell>
                <mxCell id="11" value="左子树" style="line;strokeWidth=1;html=1;fontFamily=SimSun;fontSize=19;labelBackgroundColor=none;fontColor=#FF0000;strokeColor=#FF0000;" parent="1" vertex="1">
                    <mxGeometry x="190" y="290" width="36" height="20" as="geometry"/>
                </mxCell>
                <mxCell id="12" value="右子树" style="line;strokeWidth=1;html=1;fontFamily=SimSun;fontSize=19;labelBackgroundColor=none;fontColor=#FF0000;strokeColor=#FF0000;align=left;" parent="1" vertex="1">
                    <mxGeometry x="240" y="290" width="10" height="20" as="geometry"/>
                </mxCell>
                <mxCell id="13" value="" style="rounded=0;whiteSpace=wrap;html=1;labelBackgroundColor=none;strokeColor=#00FFFF;strokeWidth=1;fontFamily=SimSun;fontSize=19;fontColor=#FF0000;fillColor=none;" parent="1" vertex="1">
                    <mxGeometry x="226" y="282" width="14" height="16" as="geometry"/>
                </mxCell>
                <mxCell id="15" value="Step3：&lt;font face=&quot;SimSun&quot;&gt;取出&lt;/font&gt;D&lt;font face=&quot;SimSun&quot;&gt;分割&lt;/font&gt;" style="text;html=1;align=center;verticalAlign=middle;resizable=0;points=[];autosize=1;strokeColor=none;fillColor=none;fontSize=19;fontFamily=Times New Roman;" parent="1" vertex="1">
                    <mxGeometry x="80" y="330" width="180" height="40" as="geometry"/>
                </mxCell>
                <mxCell id="16" value="&lt;font face=&quot;SimSun&quot;&gt;中序：&lt;/font&gt;DHL" style="text;html=1;align=center;verticalAlign=middle;resizable=0;points=[];autosize=1;strokeColor=none;fillColor=none;fontFamily=Times New Roman;fontSize=19;" vertex="1" parent="1">
                    <mxGeometry x="130" y="360" width="120" height="40" as="geometry"/>
                </mxCell>
                <mxCell id="18" value="右子树" style="line;strokeWidth=1;html=1;fontFamily=SimSun;fontSize=19;labelBackgroundColor=none;fontColor=#FF0000;strokeColor=#FF0000;align=center;" vertex="1" parent="1">
                    <mxGeometry x="215" y="380" width="25" height="20" as="geometry"/>
                </mxCell>
                <mxCell id="19" value="" style="rounded=0;whiteSpace=wrap;html=1;labelBackgroundColor=none;strokeColor=#00FFFF;strokeWidth=1;fontFamily=SimSun;fontSize=19;fontColor=#FF0000;fillColor=none;" vertex="1" parent="1">
                    <mxGeometry x="198" y="372" width="14" height="16" as="geometry"/>
                </mxCell>
                <mxCell id="20" value="Step3：&lt;font face=&quot;SimSun&quot;&gt;取出&lt;/font&gt;H&lt;font face=&quot;SimSun&quot;&gt;分割&lt;/font&gt;" style="text;html=1;align=center;verticalAlign=middle;resizable=0;points=[];autosize=1;strokeColor=none;fillColor=none;fontSize=19;fontFamily=Times New Roman;" vertex="1" parent="1">
                    <mxGeometry x="80" y="420" width="180" height="40" as="geometry"/>
                </mxCell>
                <mxCell id="21" value="&lt;font face=&quot;SimSun&quot;&gt;中序：&lt;/font&gt;HL" style="text;html=1;align=center;verticalAlign=middle;resizable=0;points=[];autosize=1;strokeColor=none;fillColor=none;fontFamily=Times New Roman;fontSize=19;" vertex="1" parent="1">
                    <mxGeometry x="130" y="450" width="110" height="40" as="geometry"/>
                </mxCell>
                <mxCell id="22" value="右子树" style="line;strokeWidth=1;html=1;fontFamily=SimSun;fontSize=19;labelBackgroundColor=none;fontColor=#FF0000;strokeColor=#FF0000;align=center;" vertex="1" parent="1">
                    <mxGeometry x="215" y="470" width="15" height="20" as="geometry"/>
                </mxCell>
                <mxCell id="23" value="" style="rounded=0;whiteSpace=wrap;html=1;labelBackgroundColor=none;strokeColor=#00FFFF;strokeWidth=1;fontFamily=SimSun;fontSize=19;fontColor=#FF0000;fillColor=none;" vertex="1" parent="1">
                    <mxGeometry x="201" y="462" width="14" height="16" as="geometry"/>
                </mxCell>
                <mxCell id="27" value="&lt;font face=&quot;SimSun&quot;&gt;构建&lt;/font&gt;A&lt;font face=&quot;SimSun&quot;&gt;左子树&lt;/font&gt;" style="text;html=1;align=center;verticalAlign=middle;resizable=0;points=[];autosize=1;strokeColor=none;fillColor=none;fontSize=19;fontFamily=Times New Roman;" vertex="1" parent="1">
                    <mxGeometry x="80" y="510" width="130" height="40" as="geometry"/>
                </mxCell>
                <mxCell id="34" style="edgeStyle=none;html=1;fontFamily=Times New Roman;fontSize=19;endArrow=none;endFill=0;" edge="1" parent="1" source="28" target="29">
                    <mxGeometry relative="1" as="geometry"/>
                </mxCell>
                <mxCell id="28" value="A" style="ellipse;whiteSpace=wrap;html=1;fontFamily=Times New Roman;fontSize=19;" vertex="1" parent="1">
                    <mxGeometry x="240" y="560" width="40" height="40" as="geometry"/>
                </mxCell>
                <mxCell id="35" style="edgeStyle=none;html=1;fontFamily=Times New Roman;fontSize=19;endArrow=none;endFill=0;" edge="1" parent="1" source="29" target="30">
                    <mxGeometry relative="1" as="geometry"/>
                </mxCell>
                <mxCell id="36" style="edgeStyle=none;html=1;fontFamily=Times New Roman;fontSize=19;endArrow=none;endFill=0;" edge="1" parent="1" source="29" target="31">
                    <mxGeometry relative="1" as="geometry"/>
                </mxCell>
                <mxCell id="29" value="B" style="ellipse;whiteSpace=wrap;html=1;fontFamily=Times New Roman;fontSize=19;" vertex="1" parent="1">
                    <mxGeometry x="190" y="610" width="40" height="40" as="geometry"/>
                </mxCell>
                <mxCell id="37" style="edgeStyle=none;html=1;fontFamily=Times New Roman;fontSize=19;endArrow=none;endFill=0;" edge="1" parent="1" source="30" target="32">
                    <mxGeometry relative="1" as="geometry"/>
                </mxCell>
                <mxCell id="30" value="D" style="ellipse;whiteSpace=wrap;html=1;fontFamily=Times New Roman;fontSize=19;" vertex="1" parent="1">
                    <mxGeometry x="140" y="660" width="40" height="40" as="geometry"/>
                </mxCell>
                <mxCell id="31" value="E" style="ellipse;whiteSpace=wrap;html=1;fontFamily=Times New Roman;fontSize=19;" vertex="1" parent="1">
                    <mxGeometry x="240" y="660" width="40" height="40" as="geometry"/>
                </mxCell>
                <mxCell id="38" style="edgeStyle=none;html=1;fontFamily=Times New Roman;fontSize=19;endArrow=none;endFill=0;" edge="1" parent="1" source="32" target="33">
                    <mxGeometry relative="1" as="geometry"/>
                </mxCell>
                <mxCell id="32" value="H" style="ellipse;whiteSpace=wrap;html=1;fontFamily=Times New Roman;fontSize=19;" vertex="1" parent="1">
                    <mxGeometry x="160" y="710" width="40" height="40" as="geometry"/>
                </mxCell>
                <mxCell id="33" value="L" style="ellipse;whiteSpace=wrap;html=1;fontFamily=Times New Roman;fontSize=19;" vertex="1" parent="1">
                    <mxGeometry x="180" y="760" width="40" height="40" as="geometry"/>
                </mxCell>
            </root>
        </mxGraphModel>
    </diagram>
</mxfile>